<svg xmlns="http://www.w3.org/2000/svg" xmlns:xlink="http://www.w3.org/1999/xlink" width="2000" zoomAndPan="magnify" viewBox="0 0 1500 1499.999933" height="2000" preserveAspectRatio="xMidYMid meet" version="1.0"><defs><filter x="0%" y="0%" width="100%" height="100%" id="b28f87f183"><feColorMatrix values="0 0 0 0 1 0 0 0 0 1 0 0 0 0 1 0 0 0 1 0" color-interpolation-filters="sRGB"></feColorMatrix></filter><filter x="0%" y="0%" width="100%" height="100%" id="f2f8ba3cae"><feColorMatrix values="0 0 0 0 1 0 0 0 0 1 0 0 0 0 1 0.2126 0.7152 0.0722 0 0" color-interpolation-filters="sRGB"></feColorMatrix></filter><g></g><clipPath id="2b5f754364"><path d="M 495.246094 352.042969 L 1004.746094 352.042969 L 1004.746094 1245.660156 L 495.246094 1245.660156 Z M 495.246094 352.042969 " clip-rule="nonzero"></path></clipPath><clipPath id="a37d71ab90"><path d="M 495.246094 607.675781 C 495.246094 466.984375 609.300781 352.925781 749.996094 352.925781 C 890.691406 352.925781 1004.746094 466.984375 1004.746094 607.675781 L 1004.746094 990.910156 C 1004.746094 1131.605469 890.691406 1245.660156 749.996094 1245.660156 C 609.300781 1245.660156 495.246094 1131.605469 495.246094 990.910156 Z M 495.246094 607.675781 " clip-rule="nonzero"></path></clipPath><clipPath id="658f7f93f7"><path d="M 0.246094 0.800781 L 509.746094 0.800781 L 509.746094 893.660156 L 0.246094 893.660156 Z M 0.246094 0.800781 " clip-rule="nonzero"></path></clipPath><clipPath id="65ad785c8e"><path d="M 0.246094 255.675781 C 0.246094 114.984375 114.300781 0.925781 254.996094 0.925781 C 395.691406 0.925781 509.746094 114.984375 509.746094 255.675781 L 509.746094 638.910156 C 509.746094 779.605469 395.691406 893.660156 254.996094 893.660156 C 114.300781 893.660156 0.246094 779.605469 0.246094 638.910156 Z M 0.246094 255.675781 " clip-rule="nonzero"></path></clipPath><clipPath id="e8759449eb"><rect x="0" width="510" y="0" height="894"></rect></clipPath><clipPath id="541b274bee"><path d="M 0.761719 0.199219 L 373.238281 0.199219 L 373.238281 10 L 0.761719 10 Z M 0.761719 0.199219 " clip-rule="nonzero"></path></clipPath><clipPath id="2b966a8a69"><path d="M 115 60 L 252 60 L 252 69.320312 L 115 69.320312 Z M 115 60 " clip-rule="nonzero"></path></clipPath><clipPath id="f0b45199cd"><rect x="0" width="374" y="0" height="70"></rect></clipPath><clipPath id="f76cf8f47f"><path d="M 500 513.574219 L 1000.6875 513.574219 L 1000.6875 782.074219 L 500 782.074219 Z M 500 513.574219 " clip-rule="nonzero"></path></clipPath><mask id="97ef32657d"><g filter="url(#b28f87f183)"><g filter="url(#f2f8ba3cae)" transform="matrix(0.40012, 0, 0, 0.40012, 499.68719, 450.309205)"><image x="0" y="0" width="1254" height="1254" preserveAspectRatio="xMidYMid meet"></image></g></g></mask><clipPath id="42459acdad"><rect x="0" width="589" y="0" height="153"></rect></clipPath><clipPath id="6d0655a5d4"><rect x="0" width="325" y="0" height="66"></rect></clipPath></defs><rect x="-150" width="1800" fill="#ffffff" y="-149.999993" height="1799.99992" fill-opacity="1"></rect><rect x="-150" width="1800" fill="#e8ddd4" y="-149.999993" height="1799.99992" fill-opacity="1"></rect><g clip-path="url(#2b5f754364)"><g clip-path="url(#a37d71ab90)"><g transform="matrix(1, 0, 0, 1, 495, 352)"><g clip-path="url(#e8759449eb)"><g clip-path="url(#658f7f93f7)"><g clip-path="url(#65ad785c8e)"><path fill="#9db4c3" d="M 0.246094 893.660156 L 0.246094 0.0429688 L 509.746094 0.0429688 L 509.746094 893.660156 Z M 0.246094 893.660156 " fill-opacity="1" fill-rule="nonzero"></path></g></g></g></g></g></g><g transform="matrix(1, 0, 0, 1, 563, 781)"><g clip-path="url(#f0b45199cd)"><g clip-path="url(#541b274bee)"><path stroke-linecap="round" transform="matrix(0.861724, 0, 0, 0.861724, 0.871489, 0.416124)" fill="none" stroke-linejoin="miter" d="M 4.999514 5.002114 L 426.991747 5.002114 " stroke="#153251" stroke-width="10" stroke-opacity="1" stroke-miterlimit="4"></path></g><path stroke-linecap="round" transform="matrix(0.861724, -0.000000000000000748, 0.000000000000000748, 0.861724, 71.422048, 30.576434)" fill="none" stroke-linejoin="miter" d="M 4.999771 5.001935 L 263.248574 5.001935 " stroke="#153251" stroke-width="10" stroke-opacity="1" stroke-miterlimit="4"></path><g clip-path="url(#2b966a8a69)"><path stroke-linecap="round" transform="matrix(0.861724, 0, 0, 0.861724, 115.535581, 60.50436)" fill="none" stroke-linejoin="miter" d="M 4.99948 4.999446 L 153.185426 4.999446 " stroke="#153251" stroke-width="10" stroke-opacity="1" stroke-miterlimit="4"></path></g></g></g><g clip-path="url(#f76cf8f47f)"><g mask="url(#97ef32657d)"><g transform="matrix(0.40012, 0, 0, 0.40012, 499.68719, 450.309205)"><image x="0" y="0" width="1254" height="1254" preserveAspectRatio="xMidYMid meet"></image></g></g></g><g transform="matrix(1, 0, 0, 1, 456, 890)"><g clip-path="url(#42459acdad)"><g fill="#153251" fill-opacity="1"><g transform="translate(0.217047, 114.176186)"><g><path d="M 3.9375 -80.546875 C 3.9375 -89.128906 5.976562 -95.71875 10.0625 -100.3125 C 14.15625 -104.90625 20.289062 -107.203125 28.46875 -107.203125 C 36.644531 -107.203125 42.773438 -104.90625 46.859375 -100.3125 C 50.953125 -95.71875 53 -89.128906 53 -80.546875 L 53 -77.21875 L 37.25 -77.21875 L 37.25 -81.609375 C 37.25 -85.441406 36.515625 -88.140625 35.046875 -89.703125 C 33.585938 -91.273438 31.546875 -92.0625 28.921875 -92.0625 C 26.296875 -92.0625 24.25 -91.273438 22.78125 -89.703125 C 21.320312 -88.140625 20.59375 -85.441406 20.59375 -81.609375 C 20.59375 -77.972656 21.398438 -74.765625 23.015625 -71.984375 C 24.628906 -69.210938 26.644531 -66.585938 29.0625 -64.109375 C 31.488281 -61.640625 34.085938 -59.171875 36.859375 -56.703125 C 39.640625 -54.234375 42.238281 -51.53125 44.65625 -48.59375 C 47.082031 -45.664062 49.101562 -42.332031 50.71875 -38.59375 C 52.332031 -34.863281 53.140625 -30.476562 53.140625 -25.4375 C 53.140625 -16.851562 51.046875 -10.265625 46.859375 -5.671875 C 42.671875 -1.078125 36.488281 1.21875 28.3125 1.21875 C 20.132812 1.21875 13.953125 -1.078125 9.765625 -5.671875 C 5.578125 -10.265625 3.484375 -16.851562 3.484375 -25.4375 L 3.484375 -31.953125 L 19.234375 -31.953125 L 19.234375 -24.375 C 19.234375 -20.539062 20.015625 -17.863281 21.578125 -16.34375 C 23.140625 -14.832031 25.234375 -14.078125 27.859375 -14.078125 C 30.484375 -14.078125 32.578125 -14.832031 34.140625 -16.34375 C 35.703125 -17.863281 36.484375 -20.539062 36.484375 -24.375 C 36.484375 -28.007812 35.675781 -31.210938 34.0625 -33.984375 C 32.445312 -36.765625 30.425781 -39.390625 28 -41.859375 C 25.582031 -44.335938 22.984375 -46.8125 20.203125 -49.28125 C 17.429688 -51.757812 14.832031 -54.460938 12.40625 -57.390625 C 9.988281 -60.316406 7.972656 -63.644531 6.359375 -67.375 C 4.742188 -71.113281 3.9375 -75.503906 3.9375 -80.546875 Z M 3.9375 -80.546875 "></path></g></g></g><g fill="#153251" fill-opacity="1"><g transform="translate(56.837998, 114.176186)"><g><path d="M 6.0625 -105.984375 L 22.71875 -105.984375 L 22.71875 -15.140625 L 50.109375 -15.140625 L 50.109375 0 L 6.0625 0 Z M 6.0625 -105.984375 "></path></g></g></g><g fill="#153251" fill-opacity="1"><g transform="translate(108.160201, 114.176186)"><g><path d="M 21.34375 -24.375 C 21.34375 -20.539062 22.125 -17.835938 23.6875 -16.265625 C 25.257812 -14.703125 27.359375 -13.921875 29.984375 -13.921875 C 32.609375 -13.921875 34.703125 -14.703125 36.265625 -16.265625 C 37.828125 -17.835938 38.609375 -20.539062 38.609375 -24.375 L 38.609375 -81.609375 C 38.609375 -85.441406 37.828125 -88.140625 36.265625 -89.703125 C 34.703125 -91.273438 32.609375 -92.0625 29.984375 -92.0625 C 27.359375 -92.0625 25.257812 -91.273438 23.6875 -89.703125 C 22.125 -88.140625 21.34375 -85.441406 21.34375 -81.609375 Z M 4.6875 -80.546875 C 4.6875 -89.128906 6.859375 -95.71875 11.203125 -100.3125 C 15.546875 -104.90625 21.804688 -107.203125 29.984375 -107.203125 C 38.160156 -107.203125 44.414062 -104.90625 48.75 -100.3125 C 53.09375 -95.71875 55.265625 -89.128906 55.265625 -80.546875 L 55.265625 -25.4375 C 55.265625 -16.851562 53.09375 -10.265625 48.75 -5.671875 C 44.414062 -1.078125 38.160156 1.21875 29.984375 1.21875 C 21.804688 1.21875 15.546875 -1.078125 11.203125 -5.671875 C 6.859375 -10.265625 4.6875 -16.851562 4.6875 -25.4375 Z M 4.6875 -80.546875 "></path></g></g></g><g fill="#153251" fill-opacity="1"><g transform="translate(168.111797, 114.176186)"><g><path d="M 22.71875 -61.3125 L 45.578125 -61.3125 L 45.578125 -46.171875 L 22.71875 -46.171875 L 22.71875 -15.140625 L 51.484375 -15.140625 L 51.484375 0 L 6.0625 0 L 6.0625 -105.984375 L 51.484375 -105.984375 L 51.484375 -90.84375 L 22.71875 -90.84375 Z M 22.71875 -61.3125 "></path></g></g></g><g fill="#153251" fill-opacity="1"><g transform="translate(223.824401, 114.176186)"><g><path d="M 30.578125 -105.984375 C 38.960938 -105.984375 45.195312 -103.757812 49.28125 -99.3125 C 53.375 -94.875 55.421875 -88.367188 55.421875 -79.796875 L 55.421875 -66.015625 C 55.421875 -57.429688 53.375 -50.914062 49.28125 -46.46875 C 45.195312 -42.03125 38.960938 -39.8125 30.578125 -39.8125 L 22.71875 -39.8125 L 22.71875 0 L 6.0625 0 L 6.0625 -105.984375 Z M 22.71875 -90.84375 L 22.71875 -54.953125 L 30.578125 -54.953125 C 33.203125 -54.953125 35.222656 -55.660156 36.640625 -57.078125 C 38.054688 -58.492188 38.765625 -61.117188 38.765625 -64.953125 L 38.765625 -80.84375 C 38.765625 -84.6875 38.054688 -87.3125 36.640625 -88.71875 C 35.222656 -90.132812 33.203125 -90.84375 30.578125 -90.84375 Z M 22.71875 -90.84375 "></path></g></g></g><g fill="#153251" fill-opacity="1"><g transform="translate(281.656516, 114.176186)"><g><path d="M 22.71875 0 L 6.0625 0 L 6.0625 -105.984375 L 22.71875 -105.984375 L 22.71875 -60.5625 L 41.640625 -60.5625 L 41.640625 -105.984375 L 58.59375 -105.984375 L 58.59375 0 L 41.640625 0 L 41.640625 -45.421875 L 22.71875 -45.421875 Z M 22.71875 0 "></path></g></g></g><g fill="#153251" fill-opacity="1"><g transform="translate(346.301286, 114.176186)"><g><path d="M 21.953125 -105.984375 L 21.953125 -24.21875 C 21.953125 -20.382812 22.734375 -17.707031 24.296875 -16.1875 C 25.859375 -14.675781 27.953125 -13.921875 30.578125 -13.921875 C 33.203125 -13.921875 35.296875 -14.675781 36.859375 -16.1875 C 38.429688 -17.707031 39.21875 -20.382812 39.21875 -24.21875 L 39.21875 -105.984375 L 54.953125 -105.984375 L 54.953125 -25.28125 C 54.953125 -16.707031 52.859375 -10.125 48.671875 -5.53125 C 44.484375 -0.9375 38.300781 1.359375 30.125 1.359375 C 21.945312 1.359375 15.765625 -0.9375 11.578125 -5.53125 C 7.390625 -10.125 5.296875 -16.707031 5.296875 -25.28125 L 5.296875 -105.984375 Z M 21.953125 -105.984375 "></path></g></g></g><g fill="#153251" fill-opacity="1"><g transform="translate(406.555654, 114.176186)"><g><path d="M 40.875 0 C 40.675781 -0.707031 40.472656 -1.363281 40.265625 -1.96875 C 40.066406 -2.570312 39.890625 -3.328125 39.734375 -4.234375 C 39.585938 -5.148438 39.488281 -6.3125 39.4375 -7.71875 C 39.382812 -9.132812 39.359375 -10.898438 39.359375 -13.015625 L 39.359375 -29.671875 C 39.359375 -34.617188 38.5 -38.101562 36.78125 -40.125 C 35.070312 -42.144531 32.300781 -43.15625 28.46875 -43.15625 L 22.71875 -43.15625 L 22.71875 0 L 6.0625 0 L 6.0625 -105.984375 L 31.1875 -105.984375 C 39.863281 -105.984375 46.144531 -103.960938 50.03125 -99.921875 C 53.925781 -95.890625 55.875 -89.785156 55.875 -81.609375 L 55.875 -73.28125 C 55.875 -62.375 52.238281 -55.207031 44.96875 -51.78125 C 49.207031 -50.0625 52.109375 -47.257812 53.671875 -43.375 C 55.234375 -39.488281 56.015625 -34.769531 56.015625 -29.21875 L 56.015625 -12.875 C 56.015625 -10.25 56.113281 -7.953125 56.3125 -5.984375 C 56.519531 -4.015625 57.03125 -2.019531 57.84375 0 Z M 22.71875 -90.84375 L 22.71875 -58.296875 L 29.21875 -58.296875 C 32.351562 -58.296875 34.800781 -59.101562 36.5625 -60.71875 C 38.332031 -62.332031 39.21875 -65.257812 39.21875 -69.5 L 39.21875 -79.9375 C 39.21875 -83.78125 38.535156 -86.554688 37.171875 -88.265625 C 35.804688 -89.984375 33.660156 -90.84375 30.734375 -90.84375 Z M 22.71875 -90.84375 "></path></g></g></g><g fill="#153251" fill-opacity="1"><g transform="translate(467.415627, 114.176186)"><g><path d="M 22.71875 -61.3125 L 45.578125 -61.3125 L 45.578125 -46.171875 L 22.71875 -46.171875 L 22.71875 -15.140625 L 51.484375 -15.140625 L 51.484375 0 L 6.0625 0 L 6.0625 -105.984375 L 51.484375 -105.984375 L 51.484375 -90.84375 L 22.71875 -90.84375 Z M 22.71875 -61.3125 "></path></g></g></g><g fill="#153251" fill-opacity="1"><g transform="translate(523.128245, 114.176186)"><g><path d="M 20.890625 -76.765625 L 20.890625 0 L 5.90625 0 L 5.90625 -105.984375 L 26.796875 -105.984375 L 43.90625 -42.546875 L 43.90625 -105.984375 L 58.75 -105.984375 L 58.75 0 L 41.640625 0 Z M 20.890625 -76.765625 "></path></g></g></g></g></g><g transform="matrix(1, 0, 0, 1, 595, 1043)"><g clip-path="url(#6d0655a5d4)"><g fill="#153251" fill-opacity="1"><g transform="translate(0.700607, 49.362762)"><g><path d="M 22.21875 -45.078125 L 22.21875 -38.765625 L 8.765625 -6.4375 L 22.21875 -6.4375 L 22.21875 0 L 1.484375 0 L 1.484375 -6.3125 L 14.9375 -38.640625 L 2.125 -38.640625 L 2.125 -45.078125 Z M 22.21875 -45.078125 "></path></g></g></g><g fill="#153251" fill-opacity="1"><g transform="translate(39.924855, 49.362762)"><g><path d="M 25.5 0 L 18.359375 0 L 17.125 -8.171875 L 8.4375 -8.171875 L 7.21875 0 L 0.703125 0 L 7.921875 -45.078125 L 18.296875 -45.078125 Z M 9.34375 -14.296875 L 16.171875 -14.296875 L 12.75 -37.09375 Z M 9.34375 -14.296875 "></path></g></g></g><g fill="#153251" fill-opacity="1"><g transform="translate(81.532064, 49.362762)"><g><path d="M 25.5 0 L 18.359375 0 L 17.125 -8.171875 L 8.4375 -8.171875 L 7.21875 0 L 0.703125 0 L 7.921875 -45.078125 L 18.296875 -45.078125 Z M 9.34375 -14.296875 L 16.171875 -14.296875 L 12.75 -37.09375 Z M 9.34375 -14.296875 "></path></g></g></g><g fill="#153251" fill-opacity="1"><g transform="translate(123.139273, 49.362762)"><g><path d="M 8.890625 -32.65625 L 8.890625 0 L 2.515625 0 L 2.515625 -45.078125 L 11.40625 -45.078125 L 18.671875 -18.09375 L 18.671875 -45.078125 L 24.984375 -45.078125 L 24.984375 0 L 17.71875 0 Z M 8.890625 -32.65625 "></path></g></g></g><g fill="#153251" fill-opacity="1"><g transform="translate(166.034565, 49.362762)"><g><path d="M 1.671875 -34.265625 C 1.671875 -37.910156 2.539062 -40.707031 4.28125 -42.65625 C 6.019531 -44.613281 8.628906 -45.59375 12.109375 -45.59375 C 15.585938 -45.59375 18.195312 -44.613281 19.9375 -42.65625 C 21.675781 -40.707031 22.546875 -37.910156 22.546875 -34.265625 L 22.546875 -32.84375 L 15.84375 -32.84375 L 15.84375 -34.71875 C 15.84375 -36.34375 15.53125 -37.488281 14.90625 -38.15625 C 14.28125 -38.820312 13.410156 -39.15625 12.296875 -39.15625 C 11.179688 -39.15625 10.3125 -38.820312 9.6875 -38.15625 C 9.070312 -37.488281 8.765625 -36.34375 8.765625 -34.71875 C 8.765625 -33.164062 9.101562 -31.800781 9.78125 -30.625 C 10.46875 -29.445312 11.328125 -28.332031 12.359375 -27.28125 C 13.390625 -26.226562 14.492188 -25.175781 15.671875 -24.125 C 16.859375 -23.070312 17.96875 -21.921875 19 -20.671875 C 20.03125 -19.429688 20.890625 -18.015625 21.578125 -16.421875 C 22.265625 -14.835938 22.609375 -12.96875 22.609375 -10.8125 C 22.609375 -7.164062 21.71875 -4.363281 19.9375 -2.40625 C 18.15625 -0.457031 15.523438 0.515625 12.046875 0.515625 C 8.566406 0.515625 5.9375 -0.457031 4.15625 -2.40625 C 2.375 -4.363281 1.484375 -7.164062 1.484375 -10.8125 L 1.484375 -13.59375 L 8.171875 -13.59375 L 8.171875 -10.375 C 8.171875 -8.738281 8.503906 -7.597656 9.171875 -6.953125 C 9.835938 -6.304688 10.726562 -5.984375 11.84375 -5.984375 C 12.96875 -5.984375 13.859375 -6.304688 14.515625 -6.953125 C 15.179688 -7.597656 15.515625 -8.738281 15.515625 -10.375 C 15.515625 -11.914062 15.171875 -13.273438 14.484375 -14.453125 C 13.796875 -15.640625 12.9375 -16.757812 11.90625 -17.8125 C 10.882812 -18.863281 9.78125 -19.914062 8.59375 -20.96875 C 7.414062 -22.019531 6.3125 -23.164062 5.28125 -24.40625 C 4.25 -25.65625 3.390625 -27.070312 2.703125 -28.65625 C 2.015625 -30.25 1.671875 -32.117188 1.671875 -34.265625 Z M 1.671875 -34.265625 "></path></g></g></g><g fill="#153251" fill-opacity="1"><g transform="translate(205.516417, 49.362762)"><g><path d="M 0.515625 -45.078125 L 22.40625 -45.078125 L 22.40625 -38.640625 L 15 -38.640625 L 15 0 L 7.921875 0 L 7.921875 -38.640625 L 0.515625 -38.640625 Z M 0.515625 -45.078125 "></path></g></g></g><g fill="#153251" fill-opacity="1"><g transform="translate(241.391555, 49.362762)"><g><path d="M 25.5 0 L 18.359375 0 L 17.125 -8.171875 L 8.4375 -8.171875 L 7.21875 0 L 0.703125 0 L 7.921875 -45.078125 L 18.296875 -45.078125 Z M 9.34375 -14.296875 L 16.171875 -14.296875 L 12.75 -37.09375 Z M 9.34375 -14.296875 "></path></g></g></g><g fill="#153251" fill-opacity="1"><g transform="translate(282.998775, 49.362762)"><g><path d="M 2.578125 -45.078125 L 13.78125 -45.078125 C 17.34375 -45.078125 19.992188 -44.132812 21.734375 -42.25 C 23.472656 -40.363281 24.34375 -37.59375 24.34375 -33.9375 L 24.34375 -11.140625 C 24.34375 -7.492188 23.472656 -4.722656 21.734375 -2.828125 C 19.992188 -0.941406 17.34375 0 13.78125 0 L 2.578125 0 Z M 9.65625 -38.640625 L 9.65625 -6.4375 L 13.65625 -6.4375 C 14.769531 -6.4375 15.648438 -6.757812 16.296875 -7.40625 C 16.941406 -8.050781 17.265625 -9.1875 17.265625 -10.8125 L 17.265625 -34.265625 C 17.265625 -35.898438 16.941406 -37.035156 16.296875 -37.671875 C 15.648438 -38.316406 14.769531 -38.640625 13.65625 -38.640625 Z M 9.65625 -38.640625 "></path></g></g></g></g></g><g fill="#153251" fill-opacity="1"><g transform="translate(525.146124, 604.91976)"><g><path d="M 13.59375 -27.578125 L 13.59375 -23.71875 L 5.359375 -3.9375 L 13.59375 -3.9375 L 13.59375 0 L 0.90625 0 L 0.90625 -3.859375 L 9.140625 -23.640625 L 1.296875 -23.640625 L 1.296875 -27.578125 Z M 13.59375 -27.578125 "></path></g></g></g><g fill="#153251" fill-opacity="1"><g transform="translate(544.378708, 604.91976)"><g><path d="M 15.609375 0 L 11.234375 0 L 10.484375 -5 L 5.15625 -5 L 4.40625 0 L 0.4375 0 L 4.84375 -27.578125 L 11.1875 -27.578125 Z M 5.71875 -8.75 L 9.890625 -8.75 L 7.796875 -22.703125 Z M 5.71875 -8.75 "></path></g></g></g><g fill="#153251" fill-opacity="1"><g transform="translate(565.069476, 604.91976)"><g><path d="M 15.609375 0 L 11.234375 0 L 10.484375 -5 L 5.15625 -5 L 4.40625 0 L 0.4375 0 L 4.84375 -27.578125 L 11.1875 -27.578125 Z M 5.71875 -8.75 L 9.890625 -8.75 L 7.796875 -22.703125 Z M 5.71875 -8.75 "></path></g></g></g><g fill="#153251" fill-opacity="1"><g transform="translate(585.760243, 604.91976)"><g><path d="M 5.4375 -19.984375 L 5.4375 0 L 1.53125 0 L 1.53125 -27.578125 L 6.96875 -27.578125 L 11.421875 -11.078125 L 11.421875 -27.578125 L 15.296875 -27.578125 L 15.296875 0 L 10.84375 0 Z M 5.4375 -19.984375 "></path></g></g></g><g fill="#153251" fill-opacity="1"><g transform="translate(899.453932, 604.91976)"><g><path d="M 1.03125 -20.96875 C 1.03125 -23.195312 1.5625 -24.910156 2.625 -26.109375 C 3.6875 -27.304688 5.28125 -27.90625 7.40625 -27.90625 C 9.53125 -27.90625 11.125 -27.304688 12.1875 -26.109375 C 13.257812 -24.910156 13.796875 -23.195312 13.796875 -20.96875 L 13.796875 -20.09375 L 9.6875 -20.09375 L 9.6875 -21.234375 C 9.6875 -22.234375 9.492188 -22.9375 9.109375 -23.34375 C 8.734375 -23.75 8.207031 -23.953125 7.53125 -23.953125 C 6.84375 -23.953125 6.304688 -23.75 5.921875 -23.34375 C 5.546875 -22.9375 5.359375 -22.234375 5.359375 -21.234375 C 5.359375 -20.296875 5.566406 -19.460938 5.984375 -18.734375 C 6.410156 -18.015625 6.9375 -17.332031 7.5625 -16.6875 C 8.195312 -16.039062 8.875 -15.394531 9.59375 -14.75 C 10.3125 -14.113281 10.988281 -13.410156 11.625 -12.640625 C 12.257812 -11.878906 12.785156 -11.015625 13.203125 -10.046875 C 13.617188 -9.078125 13.828125 -7.9375 13.828125 -6.625 C 13.828125 -4.382812 13.28125 -2.664062 12.1875 -1.46875 C 11.101562 -0.28125 9.5 0.3125 7.375 0.3125 C 5.238281 0.3125 3.625 -0.28125 2.53125 -1.46875 C 1.445312 -2.664062 0.90625 -4.382812 0.90625 -6.625 L 0.90625 -8.3125 L 5 -8.3125 L 5 -6.34375 C 5 -5.34375 5.203125 -4.644531 5.609375 -4.25 C 6.015625 -3.863281 6.5625 -3.671875 7.25 -3.671875 C 7.9375 -3.671875 8.484375 -3.863281 8.890625 -4.25 C 9.296875 -4.644531 9.5 -5.34375 9.5 -6.34375 C 9.5 -7.289062 9.285156 -8.125 8.859375 -8.84375 C 8.441406 -9.570312 7.914062 -10.253906 7.28125 -10.890625 C 6.65625 -11.535156 5.976562 -12.179688 5.25 -12.828125 C 4.53125 -13.472656 3.851562 -14.175781 3.21875 -14.9375 C 2.59375 -15.695312 2.070312 -16.5625 1.65625 -17.53125 C 1.238281 -18.507812 1.03125 -19.65625 1.03125 -20.96875 Z M 1.03125 -20.96875 "></path></g></g></g><g fill="#153251" fill-opacity="1"><g transform="translate(918.844159, 604.91976)"><g><path d="M 0.3125 -27.578125 L 13.71875 -27.578125 L 13.71875 -23.640625 L 9.1875 -23.640625 L 9.1875 0 L 4.84375 0 L 4.84375 -23.640625 L 0.3125 -23.640625 Z M 0.3125 -27.578125 "></path></g></g></g><g fill="#153251" fill-opacity="1"><g transform="translate(936.027324, 604.91976)"><g><path d="M 15.609375 0 L 11.234375 0 L 10.484375 -5 L 5.15625 -5 L 4.40625 0 L 0.4375 0 L 4.84375 -27.578125 L 11.1875 -27.578125 Z M 5.71875 -8.75 L 9.890625 -8.75 L 7.796875 -22.703125 Z M 5.71875 -8.75 "></path></g></g></g><g fill="#153251" fill-opacity="1"><g transform="translate(956.718091, 604.91976)"><g><path d="M 1.578125 -27.578125 L 8.4375 -27.578125 C 10.613281 -27.578125 12.234375 -27 13.296875 -25.84375 C 14.359375 -24.6875 14.890625 -22.992188 14.890625 -20.765625 L 14.890625 -6.8125 C 14.890625 -4.582031 14.359375 -2.890625 13.296875 -1.734375 C 12.234375 -0.578125 10.613281 0 8.4375 0 L 1.578125 0 Z M 5.90625 -23.640625 L 5.90625 -3.9375 L 8.359375 -3.9375 C 9.035156 -3.9375 9.570312 -4.132812 9.96875 -4.53125 C 10.363281 -4.925781 10.5625 -5.625 10.5625 -6.625 L 10.5625 -20.96875 C 10.5625 -21.96875 10.363281 -22.660156 9.96875 -23.046875 C 9.570312 -23.441406 9.035156 -23.640625 8.359375 -23.640625 Z M 5.90625 -23.640625 "></path></g></g></g></svg>